<mxfile host="app.diagrams.net" modified="2023-06-01T00:43:19.809Z" agent="Mozilla/5.0 (Windows NT 10.0; Win64; x64) AppleWebKit/537.36 (KHTML, like Gecko) Chrome/113.0.0.0 Safari/537.36" etag="S70-BE0nfHpMkKy_3P0u" version="21.3.5" type="device">
  <diagram name="페이지-1" id="n6DelWN3uo7V0jKwFVfY">
    <mxGraphModel dx="1647" dy="895" grid="1" gridSize="10" guides="1" tooltips="1" connect="1" arrows="1" fold="1" page="1" pageScale="1" pageWidth="1169" pageHeight="827" math="0" shadow="0">
      <root>
        <mxCell id="0" />
        <mxCell id="1" parent="0" />
        <mxCell id="psi-Y_CM3KMYjYkAf37--5" style="edgeStyle=orthogonalEdgeStyle;rounded=0;orthogonalLoop=1;jettySize=auto;html=1;" edge="1" parent="1" source="psi-Y_CM3KMYjYkAf37--1" target="psi-Y_CM3KMYjYkAf37--4">
          <mxGeometry relative="1" as="geometry">
            <mxPoint x="410" y="310" as="targetPoint" />
          </mxGeometry>
        </mxCell>
        <mxCell id="psi-Y_CM3KMYjYkAf37--1" value="user" style="shape=umlActor;verticalLabelPosition=bottom;verticalAlign=top;html=1;outlineConnect=0;" vertex="1" parent="1">
          <mxGeometry x="150" y="105" width="80" height="160" as="geometry" />
        </mxCell>
        <mxCell id="psi-Y_CM3KMYjYkAf37--9" style="rounded=0;orthogonalLoop=1;jettySize=auto;html=1;" edge="1" parent="1" source="psi-Y_CM3KMYjYkAf37--4" target="psi-Y_CM3KMYjYkAf37--6">
          <mxGeometry relative="1" as="geometry" />
        </mxCell>
        <mxCell id="psi-Y_CM3KMYjYkAf37--11" style="rounded=0;orthogonalLoop=1;jettySize=auto;html=1;entryX=0.5;entryY=0;entryDx=0;entryDy=0;" edge="1" parent="1" source="psi-Y_CM3KMYjYkAf37--4" target="psi-Y_CM3KMYjYkAf37--7">
          <mxGeometry relative="1" as="geometry" />
        </mxCell>
        <mxCell id="psi-Y_CM3KMYjYkAf37--12" style="rounded=0;orthogonalLoop=1;jettySize=auto;html=1;entryX=0.5;entryY=0;entryDx=0;entryDy=0;" edge="1" parent="1" source="psi-Y_CM3KMYjYkAf37--4" target="psi-Y_CM3KMYjYkAf37--8">
          <mxGeometry relative="1" as="geometry" />
        </mxCell>
        <mxCell id="psi-Y_CM3KMYjYkAf37--27" style="rounded=0;orthogonalLoop=1;jettySize=auto;html=1;entryX=-0.023;entryY=0.664;entryDx=0;entryDy=0;entryPerimeter=0;" edge="1" parent="1" source="psi-Y_CM3KMYjYkAf37--4" target="psi-Y_CM3KMYjYkAf37--26">
          <mxGeometry relative="1" as="geometry" />
        </mxCell>
        <mxCell id="psi-Y_CM3KMYjYkAf37--4" value="로그인하기" style="ellipse;whiteSpace=wrap;html=1;" vertex="1" parent="1">
          <mxGeometry x="465" y="150" width="150" height="70" as="geometry" />
        </mxCell>
        <mxCell id="psi-Y_CM3KMYjYkAf37--20" style="edgeStyle=orthogonalEdgeStyle;rounded=0;orthogonalLoop=1;jettySize=auto;html=1;entryX=0.5;entryY=0;entryDx=0;entryDy=0;" edge="1" parent="1" source="psi-Y_CM3KMYjYkAf37--6" target="psi-Y_CM3KMYjYkAf37--17">
          <mxGeometry relative="1" as="geometry" />
        </mxCell>
        <mxCell id="psi-Y_CM3KMYjYkAf37--6" value="회원가입하기" style="ellipse;whiteSpace=wrap;html=1;" vertex="1" parent="1">
          <mxGeometry x="240" y="414" width="160" height="70" as="geometry" />
        </mxCell>
        <mxCell id="psi-Y_CM3KMYjYkAf37--14" style="rounded=0;orthogonalLoop=1;jettySize=auto;html=1;entryX=0.5;entryY=0;entryDx=0;entryDy=0;" edge="1" parent="1" source="psi-Y_CM3KMYjYkAf37--7" target="psi-Y_CM3KMYjYkAf37--8">
          <mxGeometry relative="1" as="geometry">
            <mxPoint x="660" y="500" as="targetPoint" />
          </mxGeometry>
        </mxCell>
        <mxCell id="psi-Y_CM3KMYjYkAf37--29" style="edgeStyle=orthogonalEdgeStyle;rounded=0;orthogonalLoop=1;jettySize=auto;html=1;" edge="1" parent="1" source="psi-Y_CM3KMYjYkAf37--7" target="psi-Y_CM3KMYjYkAf37--23">
          <mxGeometry relative="1" as="geometry" />
        </mxCell>
        <mxCell id="psi-Y_CM3KMYjYkAf37--7" value="아이디 찾기" style="ellipse;whiteSpace=wrap;html=1;" vertex="1" parent="1">
          <mxGeometry x="640" y="270" width="160" height="70" as="geometry" />
        </mxCell>
        <mxCell id="psi-Y_CM3KMYjYkAf37--30" style="rounded=0;orthogonalLoop=1;jettySize=auto;html=1;entryX=0;entryY=0.5;entryDx=0;entryDy=0;" edge="1" parent="1" source="psi-Y_CM3KMYjYkAf37--8" target="psi-Y_CM3KMYjYkAf37--23">
          <mxGeometry relative="1" as="geometry" />
        </mxCell>
        <mxCell id="psi-Y_CM3KMYjYkAf37--8" value="비밀번호 찾기" style="ellipse;whiteSpace=wrap;html=1;" vertex="1" parent="1">
          <mxGeometry x="465" y="414" width="160" height="70" as="geometry" />
        </mxCell>
        <mxCell id="psi-Y_CM3KMYjYkAf37--24" style="edgeStyle=orthogonalEdgeStyle;rounded=0;orthogonalLoop=1;jettySize=auto;html=1;entryX=0;entryY=0.5;entryDx=0;entryDy=0;" edge="1" parent="1" source="psi-Y_CM3KMYjYkAf37--17" target="psi-Y_CM3KMYjYkAf37--21">
          <mxGeometry relative="1" as="geometry" />
        </mxCell>
        <mxCell id="psi-Y_CM3KMYjYkAf37--17" value="유효성검사" style="ellipse;whiteSpace=wrap;html=1;" vertex="1" parent="1">
          <mxGeometry x="240" y="530" width="160" height="70" as="geometry" />
        </mxCell>
        <mxCell id="psi-Y_CM3KMYjYkAf37--18" value="&lt;h1&gt;유효성검사&lt;/h1&gt;&lt;p&gt;이메일 중복검사&lt;/p&gt;&lt;p&gt;이메일 형식검사&lt;/p&gt;&lt;p&gt;비밀번호 적합성 검사&lt;/p&gt;" style="text;html=1;strokeColor=none;fillColor=none;spacing=5;spacingTop=-20;whiteSpace=wrap;overflow=hidden;rounded=0;" vertex="1" parent="1">
          <mxGeometry x="240" y="610" width="190" height="120" as="geometry" />
        </mxCell>
        <mxCell id="psi-Y_CM3KMYjYkAf37--25" style="edgeStyle=orthogonalEdgeStyle;rounded=0;orthogonalLoop=1;jettySize=auto;html=1;" edge="1" parent="1" source="psi-Y_CM3KMYjYkAf37--21" target="psi-Y_CM3KMYjYkAf37--23">
          <mxGeometry relative="1" as="geometry" />
        </mxCell>
        <mxCell id="psi-Y_CM3KMYjYkAf37--21" value="회원정보 저장하기" style="ellipse;whiteSpace=wrap;html=1;" vertex="1" parent="1">
          <mxGeometry x="465" y="530" width="160" height="70" as="geometry" />
        </mxCell>
        <mxCell id="psi-Y_CM3KMYjYkAf37--23" value="회원정보&lt;br&gt;table" style="shape=internalStorage;whiteSpace=wrap;html=1;backgroundOutline=1;" vertex="1" parent="1">
          <mxGeometry x="890" y="265" width="140" height="80" as="geometry" />
        </mxCell>
        <mxCell id="psi-Y_CM3KMYjYkAf37--28" style="edgeStyle=orthogonalEdgeStyle;rounded=0;orthogonalLoop=1;jettySize=auto;html=1;" edge="1" parent="1" source="psi-Y_CM3KMYjYkAf37--26" target="psi-Y_CM3KMYjYkAf37--23">
          <mxGeometry relative="1" as="geometry" />
        </mxCell>
        <mxCell id="psi-Y_CM3KMYjYkAf37--26" value="회원정보 조회&lt;br&gt;로그인 승인하기" style="ellipse;whiteSpace=wrap;html=1;" vertex="1" parent="1">
          <mxGeometry x="720" y="60" width="150" height="70" as="geometry" />
        </mxCell>
      </root>
    </mxGraphModel>
  </diagram>
</mxfile>
